<?xml version="1.0" encoding="utf-8"?>
<!-- Generator: Adobe Illustrator 24.0.1, SVG Export Plug-In . SVG Version: 6.00 Build 0)  -->
<svg version="1.1" id="Capa_1" xmlns="http://www.w3.org/2000/svg" xmlns:xlink="http://www.w3.org/1999/xlink" x="0px" y="0px"
	 viewBox="0 0 128 128" style="enable-background:new 0 0 128 128;" xml:space="preserve">
<g>
	<path d="M114.5,33.6L114.5,33.6L114.5,33.6c-0.5-4-2.7-8.8-5.3-11.4L92.4,5.4c-2.1-2.1-5.8-4-9.3-4.9C81.7,0.2,80.5,0,79.4,0h-0.9
		H21.7c-4.6,0-8.3,3.7-8.3,8.3v53.4l0,0v58.5c0.2,4.4,3.9,7.8,8.3,7.8h84.5c4.6,0,8.3-3.7,8.3-8.3V38v-2.8
		C114.6,34.7,114.5,34.2,114.5,33.6z M105.1,118.5H22.9v-5.1V48.4V9.5h55.6v21.4c0,3.9,3.2,7.1,7.1,7.1h19.5V118.5z"/>
	<g>
		<path d="M92.3,104.2H35.7c-1.6,0-2.9-2.1-2.9-4.7c0-2.6,1.3-4.7,2.9-4.7h56.5c1.6,0,2.9,2.1,2.9,4.7
			C95.2,102.1,93.9,104.2,92.3,104.2z"/>
	</g>
	<g>
		<path d="M92.3,80.9H35.7c-1.6,0-2.9-2.1-2.9-4.7c0-2.6,1.3-4.7,2.9-4.7h56.5c1.6,0,2.9,2.1,2.9,4.7C95.2,78.8,93.9,80.9,92.3,80.9
			z"/>
	</g>
	<g>
		<path d="M45.7,36.4c0.7,0.4,1.9,0.7,3.5,1.2c2,0.6,3.7,1.1,5.1,1.7c1.3,0.6,2.5,1.5,3.5,2.7c1,1.2,1.5,2.8,1.5,4.8
			c0,2.6-0.8,4.7-2.5,6.2c-1.7,1.5-3.9,2.5-6.6,2.9v6.4h-6.7v-6.5c-1.9-0.3-3.8-0.9-5.6-1.6c-1.8-0.7-3.4-1.6-4.8-2.7l3.5-7.1
			c1.4,1.2,3.2,2.3,5.4,3.2c2.2,0.9,4,1.3,5.4,1.3c0.7,0,1.3-0.1,1.7-0.4c0.4-0.3,0.6-0.7,0.6-1.2c0-0.6-0.4-1.2-1.2-1.5
			s-2-0.8-3.6-1.2c-2-0.5-3.7-1-5-1.6c-1.3-0.6-2.5-1.4-3.5-2.6c-1-1.2-1.5-2.7-1.5-4.7c0-2.4,0.8-4.3,2.3-5.9s3.6-2.6,6.2-3.1v-6.2
			h6.7v6.1c1.7,0.2,3.4,0.6,5,1.2c1.6,0.6,3.1,1.2,4.3,2L56.1,37c-1.5-0.9-3.3-1.7-5.2-2.4c-1.9-0.7-3.4-1-4.6-1
			c-1.2,0-1.7,0.4-1.7,1.3C44.6,35.6,45,36.1,45.7,36.4z"/>
	</g>
</g>
</svg>
