<?xml version="1.0" encoding="utf-8"?>
<!-- Generator: Adobe Illustrator 24.0.1, SVG Export Plug-In . SVG Version: 6.00 Build 0)  -->
<svg version="1.1" id="Capa_1" xmlns="http://www.w3.org/2000/svg" xmlns:xlink="http://www.w3.org/1999/xlink" x="0px" y="0px"
	 viewBox="0 0 128 128" style="enable-background:new 0 0 128 128;" xml:space="preserve">
<g>
	<g>
		<g>
			<path d="M113,17H15C6.7,17,0,23.7,0,32v64c0,8.3,6.7,15,15,15h98c8.3,0,15-6.7,15-15V32C128,23.7,121.3,17,113,17z M118,96
				c0,2.8-2.2,5-5,5H15c-2.8,0-5-2.2-5-5V53.5h108V96z M118,38.5H10V32c0-2.8,2.2-5,5-5h98c2.8,0,5,2.2,5,5V38.5z"/>
		</g>
	</g>
	<g>
		<g>
			<path d="M23.1,61h53.8c3.4,0,6.1,2.7,6.1,6.1v0c0,3.4-2.7,6.1-6.1,6.1H23.1c-3.4,0-6.1-2.7-6.1-6.1v0C17,63.7,19.7,61,23.1,61z"
				/>
		</g>
	</g>
</g>
</svg>
