<?xml version="1.0" encoding="utf-8"?>
<!-- Generator: Adobe Illustrator 24.0.1, SVG Export Plug-In . SVG Version: 6.00 Build 0)  -->
<svg version="1.1" id="Capa_1" xmlns="http://www.w3.org/2000/svg" xmlns:xlink="http://www.w3.org/1999/xlink" x="0px" y="0px"
	 viewBox="0 0 128 128" style="enable-background:new 0 0 128 128;" xml:space="preserve">
<g>
	<g>
		<g>
			<path d="M64,73.6c-20.3,0-36.8-16.5-36.8-36.8C27.2,16.5,43.7,0,64,0s36.8,16.5,36.8,36.8C100.8,57.1,84.3,73.6,64,73.6z
				 M64,12.9c-13.2,0-23.9,10.7-23.9,23.9C40.1,50,50.8,60.7,64,60.7S87.9,50,87.9,36.8C87.9,23.6,77.2,12.9,64,12.9z"/>
		</g>
	</g>
	<g>
		<g>
			<path d="M111.2,128H16.8c-5.5,0-9.8-3.9-9.8-9c0-10.7,5.5-20.8,15.4-28.2c9.4-7.1,21.8-11,34.9-11h13.5c13.1,0,25.5,3.9,34.9,11
				c9.9,7.4,15.4,17.5,15.4,28.2C121,124.1,116.7,128,111.2,128z M20.3,115.1h87.3c-1.2-5.1-4.5-9.9-9.8-13.9l0,0
				c-7.2-5.4-16.8-8.4-27.1-8.4H57.3c-10.3,0-19.9,3-27.1,8.4C24.9,105.1,21.5,109.9,20.3,115.1z"/>
		</g>
	</g>
</g>
</svg>
